<svg xmlns="http://www.w3.org/2000/svg" xmlns:xlink="http://www.w3.org/1999/xlink" width="500" zoomAndPan="magnify" viewBox="0 0 375 374.999991" height="500" preserveAspectRatio="xMidYMid meet" version="1.0"><defs><clipPath id="0e0bf979f5"><path d="M 169.335938 182.515625 L 216 182.515625 L 216 187.765625 L 169.335938 187.765625 Z M 169.335938 182.515625 " clip-rule="nonzero"/></clipPath></defs><path fill="#ffc0cb" d="M 361.835938 86.945312 L 249.746094 199.035156 L 337.972656 287.261719 C 358.453125 307.742188 358.453125 340.953125 337.972656 361.433594 L 329.152344 370.25 C 322.785156 376.621094 312.457031 376.621094 306.089844 370.25 L 192.308594 256.472656 L 93.046875 355.734375 C 78.660156 370.121094 55.332031 370.121094 40.949219 355.734375 L 22.78125 337.570312 C 16.648438 331.433594 16.648438 321.488281 22.78125 315.355469 L 136.984375 201.152344 L 32.308594 96.46875 C 6.953125 71.117188 6.953125 30.011719 32.308594 4.660156 C 38.675781 -1.710938 49.003906 -1.710938 55.371094 4.660156 L 194.425781 143.710938 L 273.410156 64.730469 C 297.828125 40.3125 337.417969 40.3125 361.839844 64.730469 C 367.972656 70.863281 367.972656 80.8125 361.835938 86.945312 Z M 361.835938 86.945312 " fill-opacity="1" fill-rule="nonzero"/><g clip-path="url(#0e0bf979f5)"><path fill="#ffc0cb" d="M 209.039062 183.09375 C 207.535156 183.058594 205.804688 183.027344 204.3125 183.117188 C 203.664062 183.175781 204.171875 183.226562 203.429688 183.183594 C 202.898438 183.152344 202.335938 183.101562 201.800781 183.089844 C 201.4375 183.089844 201.070312 183.09375 200.703125 183.101562 C 200.441406 183.117188 200.179688 183.132812 199.914062 183.148438 C 199.253906 183.128906 198.597656 183.109375 197.9375 183.09375 C 197.675781 183.054688 197.316406 183.082031 197.054688 183.109375 C 196.648438 183.148438 196.542969 183.109375 196.128906 183.207031 C 195.996094 183.242188 195.269531 183.347656 195.648438 183.382812 C 196.148438 183.445312 194.285156 183.5 194.671875 183.402344 C 194.804688 183.375 194.9375 183.355469 195.070312 183.328125 C 195.21875 183.300781 196.03125 183.226562 195.332031 183.238281 C 194.554688 183.246094 193.292969 183.179688 192.5625 183.265625 C 192.367188 183.292969 192.171875 183.304688 191.980469 183.34375 C 191.726562 183.398438 191.472656 183.449219 191.21875 183.503906 C 190.410156 183.503906 189.785156 183.535156 188.972656 183.589844 C 188.605469 183.632812 188.234375 183.675781 187.867188 183.71875 C 186.859375 183.828125 185.859375 183.976562 184.855469 184.09375 C 184.472656 184.132812 184.074219 184.15625 183.699219 184.230469 C 183.625 184.246094 182.59375 184.347656 183.074219 184.359375 C 183.152344 184.355469 184.265625 184.242188 184.007812 184.335938 C 183.949219 184.355469 183.726562 184.433594 183.683594 184.484375 C 183.292969 184.523438 182.902344 184.5625 182.511719 184.601562 C 182.210938 184.628906 181.742188 184.601562 181.679688 184.589844 C 181.453125 184.578125 181.179688 184.609375 180.953125 184.644531 C 180.980469 184.503906 178.929688 185.042969 178.765625 185.085938 C 178.421875 185.171875 177.804688 185.296875 177.207031 185.417969 C 176.539062 185.496094 176.394531 185.523438 175.796875 185.761719 C 175.207031 185.902344 174.617188 186.042969 174.027344 186.179688 C 173.644531 186.269531 173.261719 186.367188 172.882812 186.46875 C 172.503906 186.582031 172.128906 186.699219 171.753906 186.816406 C 171.199219 186.964844 169.84375 187.261719 169.429688 187.445312 C 169.613281 187.425781 169.777344 187.375 169.96875 187.363281 C 170.136719 187.363281 169.902344 187.472656 169.863281 187.492188 C 170.003906 187.496094 170.308594 187.425781 170.445312 187.394531 C 170.972656 187.261719 171.5 187.117188 172.027344 186.984375 C 172.242188 186.929688 172.222656 186.925781 172.46875 186.875 C 172.507812 186.867188 172.9375 186.792969 172.660156 186.902344 C 172.597656 186.914062 172.292969 186.980469 172.269531 187.019531 C 172.488281 187.070312 172.472656 187.035156 172.816406 186.953125 C 173.425781 186.808594 174.050781 186.640625 174.671875 186.527344 C 175.027344 186.457031 175.382812 186.390625 175.738281 186.320312 C 176.191406 186.207031 176.644531 186.097656 177.101562 185.988281 C 177.617188 185.871094 178.113281 185.699219 178.636719 185.601562 C 179.332031 185.46875 180.125 185.222656 180.804688 185.15625 C 180.863281 185.152344 181.417969 185.074219 181.441406 185.121094 C 181.507812 185.160156 182.089844 185.078125 182.210938 185.0625 C 182.328125 185.035156 182.445312 185.011719 182.566406 184.984375 C 183.011719 184.894531 183.460938 184.804688 183.90625 184.71875 C 184.15625 184.675781 185.382812 184.53125 185.585938 184.59375 C 185.777344 184.742188 185.773438 184.6875 186.160156 184.632812 C 186.804688 184.539062 187.46875 184.457031 188.109375 184.347656 C 188.242188 184.320312 188.859375 184.1875 188.9375 184.28125 C 188.910156 184.332031 188.882812 184.386719 188.859375 184.441406 C 189.546875 184.386719 190.226562 184.351562 190.902344 184.210938 C 191.304688 184.175781 191.710938 184.144531 192.113281 184.117188 C 191.917969 184.046875 192.65625 184.078125 192.695312 184.082031 C 193.746094 184.144531 194.121094 184.136719 195.230469 184.089844 C 195.902344 184.058594 196.582031 184 197.253906 183.953125 C 197.894531 183.945312 198.539062 183.941406 199.179688 183.941406 C 199.53125 183.929688 199.878906 183.917969 200.230469 183.910156 C 200.785156 183.910156 201.339844 183.910156 201.894531 183.914062 C 202.351562 183.917969 202.796875 183.929688 203.253906 183.90625 C 203.507812 183.894531 203.839844 183.882812 204.089844 183.839844 C 204.886719 183.859375 205.78125 183.90625 206.570312 183.882812 C 206.917969 183.855469 207.292969 183.792969 207.640625 183.734375 C 207.046875 183.707031 206.25 183.667969 207.507812 183.675781 C 208.183594 183.679688 208.949219 183.699219 209.625 183.660156 C 209.539062 183.597656 209.398438 183.484375 209.582031 183.441406 C 210.171875 183.378906 210.9375 183.390625 211.542969 183.375 C 211.757812 183.371094 211.898438 183.402344 212.097656 183.359375 C 212.363281 183.277344 210.65625 183.199219 210.402344 183.1875 C 209.933594 183.15625 209.515625 183.109375 209.039062 183.09375 Z M 215.285156 182.632812 C 214.257812 182.609375 213.222656 182.539062 212.195312 182.558594 C 210.164062 182.589844 208.09375 182.515625 206.042969 182.53125 C 206.714844 182.53125 207.53125 182.523438 208.1875 182.589844 C 208.640625 182.648438 209.128906 182.675781 209.585938 182.699219 C 209.78125 182.726562 209.980469 182.75 210.175781 182.773438 C 210.574219 182.757812 210.96875 182.738281 211.367188 182.722656 C 212.121094 182.75 212.878906 182.777344 213.636719 182.804688 C 213.902344 182.785156 214.167969 182.765625 214.433594 182.746094 C 214.636719 182.738281 216.6875 182.679688 215.285156 182.632812 Z M 205.640625 182.714844 C 205.96875 182.726562 206.292969 182.742188 206.621094 182.753906 C 206.886719 182.75 207.15625 182.746094 207.425781 182.742188 C 207.460938 182.738281 207.765625 182.699219 207.605469 182.648438 C 207.265625 182.589844 206.589844 182.609375 206.21875 182.613281 C 205.703125 182.632812 205.183594 182.648438 204.667969 182.65625 C 204.285156 182.664062 203.898438 182.679688 203.519531 182.707031 C 203.769531 182.722656 204.019531 182.738281 204.269531 182.753906 C 204.726562 182.742188 205.183594 182.726562 205.640625 182.714844 Z M 205.640625 182.714844 " fill-opacity="1" fill-rule="nonzero"/></g></svg>