<svg xmlns="http://www.w3.org/2000/svg" xmlns:xlink="http://www.w3.org/1999/xlink" width="500" zoomAndPan="magnify" viewBox="0 0 375 374.999991" height="500" preserveAspectRatio="xMidYMid meet" version="1.0"><defs><clipPath id="54155f8d67"><path d="M 12.578125 12 L 362.078125 12 L 362.078125 363 L 12.578125 363 Z M 12.578125 12 " clip-rule="nonzero"/></clipPath><clipPath id="b2e8095ce3"><path d="M 169.4375 337.5 L 205.4375 337.5 L 205.4375 373.5 L 169.4375 373.5 Z M 169.4375 337.5 " clip-rule="nonzero"/></clipPath></defs><g clip-path="url(#54155f8d67)"><path fill="#e689ff" d="M 187.5 12.578125 C 90.894531 12.578125 12.578125 90.894531 12.578125 187.5 C 12.578125 284.105469 90.894531 362.417969 187.5 362.417969 C 284.105469 362.417969 362.417969 284.105469 362.417969 187.5 C 362.417969 90.894531 284.105469 12.578125 187.5 12.578125 Z M 41.734375 187.5 C 41.734375 106.996094 106.996094 41.734375 187.5 41.734375 C 268.003906 41.734375 333.265625 106.996094 333.265625 187.5 C 333.265625 253.101562 289.929688 308.578125 230.328125 326.875 C 231.957031 297.414062 231.398438 279.164062 228.652344 272.125 C 225.753906 264.699219 223.390625 261.652344 221.972656 259.828125 C 221.046875 258.632812 220.523438 257.960938 220.523438 256.921875 C 220.523438 255.171875 221.753906 253.902344 224.21875 253.117188 C 245.695312 248.371094 260.097656 235.171875 267.425781 213.519531 C 277.578125 183.523438 263.085938 161.707031 257.222656 152.882812 C 256.738281 152.152344 256.3125 151.511719 255.964844 150.964844 C 251.40625 143.765625 257.378906 126.25 264.511719 112.234375 C 240.257812 107.371094 230.996094 118.640625 225.683594 125.105469 C 223.515625 127.742188 222.003906 129.582031 220.398438 129.191406 C 218.964844 128.839844 217.421875 128.164062 215.574219 127.351562 C 210.28125 125.023438 202.46875 121.589844 187.5 121.589844 C 168.9375 121.589844 156.636719 128.074219 154.757812 129.066406 C 154.59375 129.152344 154.507812 129.191406 154.507812 129.191406 C 144.75 115.589844 130.894531 109.941406 112.9375 112.234375 C 117.882812 131.996094 118.253906 144.90625 114.050781 150.964844 C 107.75 160.050781 95.933594 181.183594 105.105469 213.519531 C 114.277344 245.855469 147.671875 253.117188 154.027344 253.117188 L 154.070312 253.125 C 154.574219 253.234375 159.25 254.246094 157.847656 258.199219 C 157.570312 259.25 157.386719 260.679688 157.179688 262.292969 C 156.519531 267.46875 155.617188 274.503906 150.652344 276.792969 C 144.140625 279.792969 129.777344 281.429688 123.769531 277.6875 C 121.769531 276.4375 120.332031 273.828125 118.597656 270.6875 C 115.132812 264.394531 110.488281 255.964844 97.789062 252.046875 C 78.742188 246.164062 79.933594 253.941406 84.6875 255.847656 C 85.734375 256.269531 87.121094 256.660156 88.707031 257.109375 C 94.3125 258.699219 102.382812 260.984375 106.519531 267.636719 C 107.730469 269.589844 108.976562 271.726562 110.25 273.90625 C 114.554688 281.277344 119.164062 289.175781 123.769531 292.207031 C 127.75 294.824219 137.292969 295.871094 152.390625 295.351562 C 151.734375 309.605469 151.382812 320.738281 151.339844 328.746094 C 88.324219 312.664062 41.734375 255.523438 41.734375 187.5 Z M 41.734375 187.5 " fill-opacity="0.85" fill-rule="evenodd"/></g><g clip-path="url(#b2e8095ce3)"><path fill="#f2cdfc" d="M 205.554688 355.558594 C 205.554688 356.148438 205.523438 356.738281 205.464844 357.328125 C 205.410156 357.917969 205.320312 358.5 205.207031 359.082031 C 205.089844 359.660156 204.949219 360.234375 204.777344 360.800781 C 204.605469 361.367188 204.40625 361.921875 204.179688 362.46875 C 203.953125 363.015625 203.699219 363.550781 203.421875 364.070312 C 203.140625 364.59375 202.839844 365.101562 202.511719 365.589844 C 202.179688 366.082031 201.828125 366.558594 201.453125 367.015625 C 201.078125 367.472656 200.683594 367.910156 200.265625 368.328125 C 199.847656 368.746094 199.410156 369.144531 198.953125 369.519531 C 198.492188 369.894531 198.019531 370.246094 197.527344 370.574219 C 197.035156 370.902344 196.53125 371.207031 196.007812 371.484375 C 195.484375 371.761719 194.953125 372.015625 194.40625 372.242188 C 193.859375 372.46875 193.304688 372.667969 192.738281 372.839844 C 192.171875 373.011719 191.597656 373.15625 191.019531 373.269531 C 190.4375 373.386719 189.855469 373.472656 189.265625 373.53125 C 188.675781 373.589844 188.085938 373.617188 187.496094 373.617188 C 186.902344 373.617188 186.3125 373.589844 185.726562 373.53125 C 185.136719 373.472656 184.550781 373.386719 183.972656 373.269531 C 183.390625 373.15625 182.820312 373.011719 182.253906 372.839844 C 181.6875 372.667969 181.128906 372.46875 180.585938 372.242188 C 180.039062 372.015625 179.503906 371.761719 178.980469 371.484375 C 178.460938 371.207031 177.953125 370.902344 177.460938 370.574219 C 176.96875 370.246094 176.496094 369.894531 176.039062 369.519531 C 175.582031 369.144531 175.144531 368.746094 174.726562 368.328125 C 174.308594 367.910156 173.910156 367.472656 173.535156 367.015625 C 173.160156 366.558594 172.808594 366.082031 172.480469 365.589844 C 172.152344 365.101562 171.847656 364.59375 171.570312 364.070312 C 171.289062 363.550781 171.039062 363.015625 170.8125 362.46875 C 170.585938 361.921875 170.386719 361.367188 170.214844 360.800781 C 170.042969 360.234375 169.898438 359.660156 169.785156 359.082031 C 169.667969 358.5 169.582031 357.917969 169.523438 357.328125 C 169.464844 356.738281 169.4375 356.148438 169.4375 355.558594 C 169.4375 354.96875 169.464844 354.378906 169.523438 353.789062 C 169.582031 353.199219 169.667969 352.617188 169.785156 352.035156 C 169.898438 351.457031 170.042969 350.882812 170.214844 350.316406 C 170.386719 349.75 170.585938 349.195312 170.8125 348.648438 C 171.039062 348.101562 171.289062 347.566406 171.570312 347.046875 C 171.847656 346.523438 172.152344 346.015625 172.480469 345.527344 C 172.808594 345.035156 173.160156 344.558594 173.535156 344.101562 C 173.910156 343.644531 174.308594 343.207031 174.726562 342.789062 C 175.144531 342.371094 175.582031 341.972656 176.039062 341.597656 C 176.496094 341.222656 176.96875 340.871094 177.460938 340.542969 C 177.953125 340.214844 178.460938 339.910156 178.980469 339.632812 C 179.503906 339.351562 180.039062 339.101562 180.585938 338.875 C 181.128906 338.648438 181.6875 338.449219 182.253906 338.277344 C 182.820312 338.105469 183.390625 337.960938 183.972656 337.847656 C 184.550781 337.730469 185.136719 337.644531 185.726562 337.585938 C 186.3125 337.527344 186.902344 337.5 187.496094 337.5 C 188.085938 337.5 188.675781 337.527344 189.265625 337.585938 C 189.855469 337.644531 190.4375 337.730469 191.019531 337.847656 C 191.597656 337.960938 192.171875 338.105469 192.738281 338.277344 C 193.304688 338.449219 193.859375 338.648438 194.40625 338.875 C 194.953125 339.101562 195.484375 339.351562 196.007812 339.632812 C 196.53125 339.910156 197.035156 340.214844 197.527344 340.542969 C 198.019531 340.871094 198.492188 341.222656 198.953125 341.597656 C 199.410156 341.972656 199.847656 342.371094 200.265625 342.789062 C 200.683594 343.207031 201.078125 343.644531 201.453125 344.101562 C 201.828125 344.558594 202.179688 345.035156 202.511719 345.527344 C 202.839844 346.015625 203.140625 346.523438 203.421875 347.046875 C 203.699219 347.566406 203.953125 348.101562 204.179688 348.648438 C 204.40625 349.195312 204.605469 349.75 204.777344 350.316406 C 204.949219 350.882812 205.089844 351.457031 205.207031 352.035156 C 205.320312 352.617188 205.410156 353.199219 205.464844 353.789062 C 205.523438 354.378906 205.554688 354.96875 205.554688 355.558594 Z M 205.554688 355.558594 " fill-opacity="1" fill-rule="nonzero"/></g><path fill="#ffffff" d="M 187.949219 346.519531 L 189.917969 346.921875 L 186.160156 364.597656 L 184.195312 364.195312 L 187.949219 346.519531 M 195.117188 355.558594 L 191.511719 351.953125 L 191.511719 349.109375 L 197.960938 355.558594 L 191.511719 361.996094 L 191.511719 359.15625 L 195.117188 355.558594 M 177.035156 355.558594 L 183.484375 349.109375 L 183.484375 351.953125 L 179.871094 355.558594 L 183.476562 359.15625 L 183.476562 361.996094 Z M 177.035156 355.558594 " fill-opacity="1" fill-rule="nonzero"/></svg>