<svg xmlns="http://www.w3.org/2000/svg" xmlns:xlink="http://www.w3.org/1999/xlink" width="500" zoomAndPan="magnify" viewBox="0 0 375 374.999991" height="500" preserveAspectRatio="xMidYMid meet" version="1.0"><path fill="#000000" d="M 18.097656 262.65625 C 13.402344 264.039062 15.058594 250.371094 15.195312 248.300781 C 15.75 240.15625 16.714844 232.148438 17.957031 224.003906 C 19.890625 210.335938 22.101562 196.808594 22.65625 183.003906 C 23.757812 153.875 16.300781 125.296875 16.855469 96.167969 C 16.992188 89.40625 17.40625 82.503906 18.234375 75.738281 C 19.0625 68.695312 19.890625 62.484375 26.523438 58.757812 C 38.261719 51.992188 53.730469 52.269531 66.851562 52.960938 C 96.410156 54.617188 125.554688 57.929688 155.109375 57.652344 C 212.292969 57.101562 270.300781 42.605469 326.378906 59.863281 C 337.152344 63.175781 347.511719 68.835938 353.175781 79.050781 C 358.835938 89.679688 358.699219 102.519531 357.871094 114.117188 C 356.074219 143.382812 352.757812 172.511719 349.996094 201.640625 C 348.476562 218.894531 346.820312 236.152344 345.300781 253.40625 C 344.75 259.894531 345.300781 268.453125 338.394531 271.628906 C 333.007812 273.976562 326.242188 273.285156 320.578125 272.734375 C 286.875 269.421875 253.3125 265.417969 219.613281 261.691406 C 210.773438 260.722656 210.910156 274.527344 219.613281 275.496094 C 253.589844 279.222656 287.566406 283.640625 321.542969 286.539062 C 332.730469 287.503906 346.128906 286.675781 353.449219 276.875 C 357.59375 271.214844 358.285156 264.3125 358.835938 257.550781 C 359.664062 248.988281 360.355469 240.292969 361.183594 231.734375 C 364.363281 197.222656 367.398438 162.847656 370.578125 128.335938 C 372.925781 101.96875 374.445312 72.5625 349.996094 55.71875 C 339.5 48.402344 326.515625 45.089844 314.222656 42.882812 C 298.339844 39.84375 282.042969 37.5 265.882812 37.222656 C 231.628906 36.667969 197.515625 43.019531 163.261719 43.847656 C 146.132812 44.261719 129.144531 43.988281 112.15625 43.019531 C 95.71875 42.054688 79.421875 39.707031 62.984375 39.015625 C 48.484375 38.464844 32.324219 39.570312 19.339844 46.886719 C 6.082031 54.476562 4.835938 68.28125 3.730469 82.089844 C 0.554688 119.5 11.605469 156.21875 8.152344 193.492188 C 6.496094 211.855469 2.628906 229.9375 1.523438 248.300781 C 1.109375 255.617188 0.554688 263.761719 4.976562 270.113281 C 8.84375 275.496094 15.472656 277.980469 21.824219 276.046875 C 30.25 273.425781 26.660156 260.035156 18.097656 262.65625 Z M 18.097656 262.65625 " fill-opacity="1" fill-rule="nonzero"/><path fill="#000000" d="M 20.859375 277.84375 C 53.316406 278.671875 86.050781 278.257812 118.371094 280.464844 C 131.769531 281.429688 145.167969 284.746094 154.144531 295.511719 C 162.570312 305.589844 166.160156 318.980469 169.75 331.265625 C 171.410156 336.925781 179.421875 338.167969 182.320312 332.921875 C 189.363281 320.5 196.410156 308.214844 203.316406 295.789062 C 208.148438 287.230469 213.121094 276.324219 223.894531 274.941406 C 232.597656 273.699219 228.867188 260.449219 220.164062 261.691406 C 208.285156 263.347656 200.550781 273.148438 194.75 282.8125 C 186.324219 297.03125 178.316406 311.664062 170.167969 326.019531 C 174.308594 326.574219 178.589844 327.125 182.734375 327.679688 C 178.730469 313.871094 174.449219 299.652344 165.46875 288.195312 C 156.355469 276.460938 143.371094 270.109375 128.730469 267.902344 C 112.15625 265.417969 95.027344 265.96875 78.179688 265.554688 C 58.980469 265.140625 39.644531 264.589844 20.445312 264.175781 C 11.882812 263.761719 11.882812 277.566406 20.859375 277.84375 Z M 20.859375 277.84375 " fill-opacity="1" fill-rule="nonzero"/><path fill="#fc9acc" d="M 187.984375 146.832031 C 187.570312 138.136719 191.988281 129.4375 198.757812 123.917969 C 205.523438 118.394531 214.363281 115.632812 223.066406 115.21875 C 228.3125 114.945312 233.5625 115.632812 238.257812 117.980469 C 251.378906 124.605469 253.867188 143.519531 247.375 156.632812 C 240.882812 169.75 227.898438 178.445312 215.46875 186.175781 C 203.039062 193.90625 189.917969 201.914062 182.183594 214.476562 C 162.15625 207.4375 141.714844 197.910156 129.28125 180.65625 C 116.851562 163.398438 115.746094 136.339844 132.183594 122.8125 C 137.847656 118.117188 145.167969 115.359375 152.488281 114.117188 C 158.148438 113.148438 164.089844 112.871094 169.335938 115.082031 C 181.769531 120.328125 185.222656 136.066406 187.15625 149.457031 " fill-opacity="1" fill-rule="nonzero"/><path fill="#000000" d="M 192.128906 146.832031 C 191.988281 127.78125 212.015625 117.289062 229.144531 119.636719 C 244.886719 121.707031 249.722656 138.964844 244.613281 152.355469 C 239.085938 166.988281 224.03125 175.960938 211.324219 183.832031 C 198.757812 191.699219 186.601562 199.84375 178.453125 212.40625 C 179.972656 211.714844 181.628906 211.164062 183.148438 210.472656 C 155.386719 200.671875 120.996094 182.3125 124.171875 147.523438 C 125.828125 129.714844 139.917969 118.671875 157.320312 117.566406 C 176.65625 116.1875 180.9375 135.238281 183.011719 150.558594 C 183.703125 155.804688 191.710938 153.597656 191.023438 148.351562 C 188.675781 131.234375 182.597656 110.800781 162.15625 109.285156 C 142.957031 107.902344 123.34375 119.085938 117.679688 137.722656 C 112.433594 154.703125 117.679688 173.476562 128.730469 186.867188 C 141.988281 202.882812 161.742188 211.578125 180.800781 218.480469 C 182.597656 219.171875 184.53125 218.066406 185.496094 216.546875 C 204.144531 187.695312 262.015625 178.308594 254.140625 134.546875 C 250.964844 116.875 235.496094 109.285156 218.507812 111.355469 C 200 113.703125 183.5625 127.09375 183.703125 146.695312 C 183.839844 152.21875 192.128906 152.21875 192.128906 146.832031 Z M 192.128906 146.832031 " fill-opacity="1" fill-rule="nonzero"/></svg>