<svg xmlns="http://www.w3.org/2000/svg" xmlns:xlink="http://www.w3.org/1999/xlink" width="500" zoomAndPan="magnify" viewBox="0 0 375 374.999991" height="500" preserveAspectRatio="xMidYMid meet" version="1.0"><defs><clipPath id="9b0e6df6c3"><path d="M 16 100 L 363.101562 100 L 363.101562 236 L 16 236 Z M 16 100 " clip-rule="nonzero"/></clipPath><clipPath id="5bd9fe1d53"><path d="M 16 176 L 363.101562 176 L 363.101562 236 L 16 236 Z M 16 176 " clip-rule="nonzero"/></clipPath></defs><g clip-path="url(#9b0e6df6c3)"><path fill="#e3f2ff" d="M 334.527344 179.238281 C 345.113281 158.808594 321.726562 137.949219 288.4375 137.097656 C 288.078125 127.066406 282.441406 116.402344 272.503906 108.992188 C 255.582031 96.375 233.230469 98.382812 225.078125 113.914062 C 201.582031 102.648438 173.753906 113.359375 161.597656 139.746094 C 161.519531 139.835938 161.441406 139.929688 161.359375 140.023438 C 142.273438 132.378906 119.167969 140.078125 112.261719 156.363281 C 76.023438 136.671875 16.457031 151.597656 16.457031 179.464844 C 16.457031 204.023438 64.085938 219.894531 102.179688 206.945312 C 116.914062 235.8125 150.101562 241.867188 160.828125 218.273438 C 175.484375 235.582031 197.601562 240.035156 216.082031 231.1875 C 231.019531 238.339844 249.058594 237.042969 263.582031 225.738281 C 298.710938 246.105469 363.066406 232.859375 363.066406 205.390625 C 363.066406 194.21875 351.585938 184.472656 334.527344 179.238281 " fill-opacity="1" fill-rule="nonzero"/></g><path fill="#ffffff" d="M 337.058594 169.207031 C 329.777344 159.117188 311.882812 151.863281 290.722656 151.40625 C 290.355469 142.699219 284.578125 133.441406 274.394531 127.003906 C 257.082031 116.066406 234.183594 117.769531 225.789062 131.277344 C 201.648438 121.476562 173.160156 130.835938 160.734375 153.707031 C 160.644531 153.785156 160.566406 153.867188 160.484375 153.949219 C 141.261719 147.4375 117.378906 153.726562 110.167969 168.136719 C 80.582031 154.535156 32.289062 159.589844 16.589844 177.332031 C 19.6875 150.546875 77.308594 137.371094 112.257812 156.363281 C 119.203125 139.996094 142.390625 132.414062 161.363281 140.027344 C 161.441406 139.929688 161.523438 139.832031 161.597656 139.746094 C 173.8125 113.230469 201.699219 102.699219 225.078125 113.914062 C 233.171875 98.441406 255.527344 96.328125 272.503906 108.992188 C 282.441406 116.402344 288.078125 127.070312 288.4375 137.097656 C 315.472656 137.789062 337.058594 151.898438 337.058594 169.207031 " fill-opacity="1" fill-rule="nonzero"/><g clip-path="url(#5bd9fe1d53)"><path fill="#b6d5f0" d="M 363.066406 205.390625 C 363.066406 232.597656 299.046875 246.296875 263.585938 225.738281 C 249.050781 237.042969 231.015625 238.34375 216.082031 231.183594 C 197.601562 240.042969 175.476562 235.574219 160.824219 218.273438 C 150.21875 241.652344 117.15625 236.132812 102.179688 206.941406 C 62.207031 220.539062 12.074219 202.339844 16.746094 176.179688 C 21.011719 189.15625 67.328125 195.976562 102.179688 189.457031 C 116.933594 205.328125 150.148438 208.617188 160.824219 195.675781 C 175.863281 205.425781 198.089844 207.496094 216.082031 202.765625 C 231.140625 206.722656 249.144531 205.941406 263.585938 199.773438 C 274.042969 203.109375 292.117188 213.058594 308.871094 213.058594 C 333.441406 213.058594 352.570312 203.8125 359.859375 195.394531 C 361.933594 198.519531 363.066406 201.882812 363.066406 205.390625 " fill-opacity="1" fill-rule="nonzero"/></g><path fill="#b6d5f0" d="M 337.050781 168.886719 C 337.050781 168.722656 337.050781 168.558594 337.046875 168.402344 C 337.066406 168.546875 337.0625 168.8125 337.050781 168.886719 " fill-opacity="1" fill-rule="nonzero"/><path fill="#b6d5f0" d="M 321.808594 222.484375 C 298.945312 225.332031 267.144531 209.832031 255.371094 190.160156 C 273.148438 205.605469 298.660156 218.023438 321.808594 222.484375 " fill-opacity="1" fill-rule="nonzero"/><path fill="#b6d5f0" d="M 124.21875 178.390625 C 114.890625 194.21875 91.285156 201.09375 74.9375 192.828125 C 91.839844 194.242188 110.765625 188.703125 124.21875 178.390625 " fill-opacity="1" fill-rule="nonzero"/><path fill="#b6d5f0" d="M 243.171875 190.378906 C 229.566406 211.898438 204.644531 211.820312 191.117188 190.378906 C 207.148438 200.839844 227.140625 200.839844 243.171875 190.378906 " fill-opacity="1" fill-rule="nonzero"/><path fill="#b6d5f0" d="M 269.203125 146.976562 C 255.597656 168.496094 230.671875 168.417969 217.148438 146.976562 C 233.179688 157.4375 253.167969 157.441406 269.203125 146.976562 " fill-opacity="1" fill-rule="nonzero"/></svg>