<svg xmlns="http://www.w3.org/2000/svg" xmlns:xlink="http://www.w3.org/1999/xlink" width="500" zoomAndPan="magnify" viewBox="0 0 375 374.999991" height="500" preserveAspectRatio="xMidYMid meet" version="1.0"><defs><clipPath id="8631905891"><path d="M 0 92 L 337 92 L 337 325.257812 L 0 325.257812 Z M 0 92 " clip-rule="nonzero"/></clipPath><clipPath id="91628a1ead"><path d="M 5 177 L 332 177 L 332 325.257812 L 5 325.257812 Z M 5 177 " clip-rule="nonzero"/></clipPath><clipPath id="b10def828c"><path d="M 13 190 L 325 190 L 325 325.257812 L 13 325.257812 Z M 13 190 " clip-rule="nonzero"/></clipPath><clipPath id="761e5061f2"><path d="M 219 28.257812 L 375 28.257812 L 375 184 L 219 184 Z M 219 28.257812 " clip-rule="nonzero"/></clipPath></defs><g clip-path="url(#8631905891)"><path fill="#f2cdfc" d="M 46.796875 92.878906 L 289.429688 92.878906 C 290.957031 92.878906 292.484375 92.957031 294.007812 93.105469 C 295.527344 93.253906 297.039062 93.480469 298.539062 93.777344 C 300.039062 94.074219 301.523438 94.445312 302.984375 94.890625 C 304.449219 95.335938 305.886719 95.851562 307.300781 96.433594 C 308.714844 97.019531 310.097656 97.675781 311.445312 98.394531 C 312.792969 99.117188 314.105469 99.902344 315.375 100.75 C 316.648438 101.601562 317.875 102.511719 319.058594 103.480469 C 320.242188 104.453125 321.371094 105.480469 322.453125 106.558594 C 323.535156 107.640625 324.5625 108.773438 325.53125 109.957031 C 326.503906 111.140625 327.414062 112.367188 328.261719 113.636719 C 329.113281 114.910156 329.898438 116.21875 330.621094 117.570312 C 331.339844 118.917969 331.992188 120.300781 332.578125 121.714844 C 333.164062 123.125 333.679688 124.566406 334.125 126.027344 C 334.566406 127.492188 334.9375 128.976562 335.238281 130.476562 C 335.535156 131.976562 335.761719 133.488281 335.910156 135.007812 C 336.058594 136.53125 336.136719 138.058594 336.136719 139.585938 L 336.136719 278.820312 C 336.136719 280.347656 336.058594 281.875 335.910156 283.398438 C 335.761719 284.917969 335.535156 286.429688 335.238281 287.929688 C 334.9375 289.429688 334.566406 290.914062 334.125 292.378906 C 333.679688 293.839844 333.164062 295.28125 332.578125 296.691406 C 331.992188 298.105469 331.339844 299.488281 330.621094 300.835938 C 329.898438 302.183594 329.113281 303.496094 328.261719 304.769531 C 327.414062 306.039062 326.503906 307.265625 325.53125 308.449219 C 324.5625 309.632812 323.535156 310.765625 322.453125 311.84375 C 321.371094 312.925781 320.242188 313.953125 319.058594 314.925781 C 317.875 315.894531 316.648438 316.804688 315.375 317.652344 C 314.105469 318.503906 312.792969 319.289062 311.445312 320.011719 C 310.097656 320.730469 308.714844 321.386719 307.300781 321.96875 C 305.886719 322.554688 304.449219 323.070312 302.984375 323.515625 C 301.523438 323.957031 300.039062 324.328125 298.539062 324.628906 C 297.039062 324.925781 295.527344 325.152344 294.007812 325.300781 C 292.484375 325.449219 290.957031 325.527344 289.429688 325.527344 L 46.796875 325.527344 C 45.269531 325.527344 43.742188 325.449219 42.21875 325.300781 C 40.699219 325.152344 39.1875 324.925781 37.6875 324.628906 C 36.183594 324.328125 34.703125 323.957031 33.238281 323.515625 C 31.777344 323.070312 30.335938 322.554688 28.925781 321.96875 C 27.511719 321.386719 26.128906 320.730469 24.78125 320.011719 C 23.429688 319.289062 22.121094 318.503906 20.847656 317.652344 C 19.578125 316.804688 18.351562 315.894531 17.167969 314.925781 C 15.984375 313.953125 14.851562 312.925781 13.769531 311.84375 C 12.6875 310.765625 11.664062 309.632812 10.691406 308.449219 C 9.722656 307.265625 8.8125 306.039062 7.960938 304.769531 C 7.113281 303.496094 6.328125 302.183594 5.605469 300.835938 C 4.886719 299.488281 4.230469 298.105469 3.644531 296.691406 C 3.0625 295.28125 2.546875 293.839844 2.101562 292.378906 C 1.65625 290.914062 1.285156 289.429688 0.988281 287.929688 C 0.691406 286.429688 0.464844 284.917969 0.316406 283.398438 C 0.164062 281.875 0.0898438 280.347656 0.0898438 278.820312 L 0.0898438 139.585938 C 0.0898438 138.058594 0.164062 136.53125 0.316406 135.007812 C 0.464844 133.488281 0.691406 131.976562 0.988281 130.476562 C 1.285156 128.976562 1.65625 127.492188 2.101562 126.027344 C 2.546875 124.566406 3.0625 123.125 3.644531 121.714844 C 4.230469 120.300781 4.886719 118.917969 5.605469 117.570312 C 6.328125 116.21875 7.113281 114.910156 7.960938 113.636719 C 8.8125 112.367188 9.722656 111.140625 10.691406 109.957031 C 11.664062 108.773438 12.6875 107.640625 13.769531 106.558594 C 14.851562 105.480469 15.984375 104.453125 17.167969 103.480469 C 18.351562 102.511719 19.578125 101.601562 20.847656 100.75 C 22.121094 99.902344 23.429688 99.117188 24.78125 98.394531 C 26.128906 97.675781 27.511719 97.019531 28.925781 96.433594 C 30.335938 95.851562 31.777344 95.335938 33.238281 94.890625 C 34.703125 94.445312 36.183594 94.074219 37.6875 93.777344 C 39.1875 93.480469 40.699219 93.253906 42.21875 93.105469 C 43.742188 92.957031 45.269531 92.878906 46.796875 92.878906 Z M 46.796875 92.878906 " fill-opacity="1" fill-rule="nonzero"/></g><g clip-path="url(#91628a1ead)"><path fill="#e172ff" d="M 331.570312 298.867188 L 206.265625 191.738281 C 204.960938 190.589844 203.605469 189.5 202.199219 188.476562 C 200.796875 187.449219 199.347656 186.488281 197.855469 185.589844 C 196.363281 184.695312 194.835938 183.867188 193.269531 183.109375 C 191.703125 182.351562 190.109375 181.667969 188.480469 181.054688 C 186.851562 180.441406 185.199219 179.902344 183.523438 179.4375 C 181.847656 178.972656 180.152344 178.585938 178.441406 178.273438 C 176.730469 177.964844 175.007812 177.730469 173.273438 177.574219 C 171.542969 177.417969 169.804688 177.339844 168.066406 177.34375 C 166.328125 177.34375 164.589844 177.421875 162.859375 177.582031 C 161.125 177.738281 159.402344 177.976562 157.691406 178.289062 C 155.980469 178.601562 154.289062 178.992188 152.613281 179.460938 C 150.9375 179.925781 149.285156 180.46875 147.65625 181.082031 C 146.03125 181.699219 144.433594 182.386719 142.871094 183.148438 C 141.304688 183.90625 139.777344 184.738281 138.289062 185.636719 C 136.796875 186.53125 135.351562 187.496094 133.949219 188.523438 C 132.546875 189.554688 131.191406 190.644531 129.886719 191.796875 L 5.90625 301.378906 C 6.910156 303.199219 8.03125 304.945312 9.269531 306.617188 C 10.503906 308.289062 11.847656 309.871094 13.296875 311.359375 C 14.742188 312.851562 16.285156 314.242188 17.917969 315.527344 C 19.550781 316.8125 21.261719 317.984375 23.054688 319.039062 C 24.84375 320.097656 26.695312 321.03125 28.609375 321.839844 C 30.523438 322.648438 32.484375 323.328125 34.492188 323.875 C 36.496094 324.421875 38.527344 324.835938 40.589844 325.113281 C 42.648438 325.386719 44.71875 325.527344 46.796875 325.527344 L 289.429688 325.527344 C 291.625 325.523438 293.808594 325.371094 295.980469 325.058594 C 298.15625 324.75 300.296875 324.289062 302.40625 323.679688 C 304.515625 323.066406 306.570312 322.3125 308.570312 321.410156 C 310.574219 320.507812 312.503906 319.46875 314.359375 318.296875 C 316.214844 317.125 317.976562 315.824219 319.648438 314.402344 C 321.320312 312.980469 322.886719 311.445312 324.34375 309.804688 C 325.796875 308.160156 327.132812 306.421875 328.34375 304.589844 C 329.554688 302.757812 330.628906 300.851562 331.570312 298.867188 Z M 331.570312 298.867188 " fill-opacity="1" fill-rule="nonzero"/></g><g clip-path="url(#b10def828c)"><path fill="#f2cdfc" d="M 324.429688 309.765625 C 322.246094 312.246094 319.828125 314.472656 317.167969 316.433594 C 314.511719 318.398438 311.675781 320.0625 308.664062 321.421875 C 305.652344 322.78125 302.53125 323.804688 299.296875 324.496094 C 296.066406 325.1875 292.796875 325.53125 289.492188 325.527344 L 46.734375 325.527344 C 43.660156 325.535156 40.617188 325.238281 37.605469 324.636719 C 34.589844 324.039062 31.664062 323.148438 28.832031 321.964844 C 25.996094 320.777344 23.304688 319.328125 20.757812 317.605469 C 18.214844 315.882812 15.863281 313.925781 13.710938 311.738281 L 138.449219 201.480469 C 139.464844 200.585938 140.515625 199.738281 141.605469 198.941406 C 142.695312 198.140625 143.820312 197.394531 144.976562 196.695312 C 146.132812 196 147.320312 195.355469 148.535156 194.765625 C 149.753906 194.175781 150.992188 193.640625 152.257812 193.164062 C 153.519531 192.683594 154.804688 192.265625 156.105469 191.902344 C 157.410156 191.539062 158.722656 191.238281 160.054688 190.996094 C 161.382812 190.753906 162.722656 190.570312 164.066406 190.449219 C 165.414062 190.324219 166.761719 190.265625 168.113281 190.265625 C 169.464844 190.265625 170.8125 190.324219 172.160156 190.449219 C 173.503906 190.570312 174.84375 190.753906 176.171875 190.996094 C 177.5 191.238281 178.816406 191.539062 180.121094 191.902344 C 181.421875 192.265625 182.703125 192.683594 183.96875 193.164062 C 185.234375 193.640625 186.472656 194.175781 187.6875 194.765625 C 188.90625 195.355469 190.089844 196 191.25 196.695312 C 192.40625 197.394531 193.53125 198.140625 194.621094 198.941406 C 195.710938 199.738281 196.761719 200.585938 197.773438 201.480469 Z M 324.429688 309.765625 " fill-opacity="1" fill-rule="nonzero"/></g><path fill="#e172ff" d="M 289.429688 92.878906 L 46.796875 92.878906 C 44.855469 92.878906 42.921875 93 40.996094 93.242188 C 39.070312 93.484375 37.167969 93.84375 35.285156 94.320312 C 33.40625 94.800781 31.5625 95.394531 29.753906 96.105469 C 27.945312 96.8125 26.191406 97.632812 24.488281 98.558594 C 22.78125 99.488281 21.140625 100.519531 19.566406 101.652344 C 17.988281 102.785156 16.488281 104.011719 15.066406 105.332031 C 13.644531 106.652344 12.308594 108.058594 11.0625 109.546875 C 9.816406 111.03125 8.664062 112.589844 7.613281 114.222656 L 129.789062 217.796875 C 131.117188 218.921875 132.488281 219.984375 133.90625 220.988281 C 135.324219 221.992188 136.785156 222.929688 138.285156 223.804688 C 139.785156 224.679688 141.324219 225.484375 142.894531 226.226562 C 144.464844 226.964844 146.066406 227.632812 147.699219 228.230469 C 149.328125 228.828125 150.984375 229.355469 152.660156 229.808594 C 154.335938 230.261719 156.03125 230.640625 157.742188 230.945312 C 159.453125 231.246094 161.171875 231.476562 162.902344 231.628906 C 164.632812 231.78125 166.367188 231.855469 168.105469 231.855469 C 169.84375 231.855469 171.574219 231.78125 173.304688 231.628906 C 175.035156 231.476562 176.757812 231.246094 178.46875 230.945312 C 180.179688 230.640625 181.871094 230.261719 183.546875 229.808594 C 185.226562 229.355469 186.878906 228.828125 188.511719 228.230469 C 190.140625 227.632812 191.742188 226.964844 193.316406 226.226562 C 194.886719 225.484375 196.421875 224.679688 197.925781 223.804688 C 199.425781 222.929688 200.886719 221.992188 202.304688 220.988281 C 203.722656 219.984375 205.09375 218.921875 206.417969 217.796875 L 328.613281 114.222656 C 327.5625 112.589844 326.410156 111.03125 325.164062 109.546875 C 323.917969 108.058594 322.582031 106.652344 321.160156 105.332031 C 319.734375 104.011719 318.234375 102.785156 316.660156 101.652344 C 315.085938 100.519531 313.445312 99.488281 311.738281 98.558594 C 310.035156 97.632812 308.277344 96.8125 306.472656 96.105469 C 304.664062 95.394531 302.820312 94.800781 300.941406 94.320312 C 299.058594 93.84375 297.15625 93.484375 295.230469 93.242188 C 293.300781 93 291.367188 92.878906 289.429688 92.878906 Z M 289.429688 92.878906 " fill-opacity="1" fill-rule="nonzero"/><path fill="#f2cdfc" d="M 320.203125 104.40625 L 198.066406 207.941406 C 197.03125 208.820312 195.957031 209.652344 194.847656 210.4375 C 193.742188 211.222656 192.597656 211.957031 191.425781 212.640625 C 190.253906 213.324219 189.050781 213.957031 187.824219 214.535156 C 186.59375 215.113281 185.339844 215.636719 184.066406 216.101562 C 182.792969 216.570312 181.5 216.980469 180.1875 217.335938 C 178.875 217.691406 177.550781 217.988281 176.214844 218.222656 C 174.878906 218.460938 173.53125 218.640625 172.179688 218.757812 C 170.828125 218.878906 169.472656 218.9375 168.113281 218.9375 C 166.753906 218.9375 165.398438 218.878906 164.046875 218.757812 C 162.691406 218.640625 161.347656 218.460938 160.011719 218.222656 C 158.671875 217.988281 157.347656 217.691406 156.039062 217.335938 C 154.726562 216.980469 153.433594 216.570312 152.160156 216.101562 C 150.882812 215.636719 149.632812 215.113281 148.402344 214.535156 C 147.175781 213.957031 145.972656 213.324219 144.800781 212.640625 C 143.625 211.957031 142.484375 211.222656 141.375 210.4375 C 140.265625 209.652344 139.195312 208.820312 138.160156 207.941406 L 16.019531 104.40625 C 18.125 102.558594 20.375 100.914062 22.777344 99.472656 C 25.179688 98.03125 27.691406 96.820312 30.3125 95.835938 C 32.9375 94.851562 35.625 94.109375 38.382812 93.613281 C 41.136719 93.117188 43.917969 92.871094 46.71875 92.878906 L 289.492188 92.878906 C 292.292969 92.871094 295.074219 93.117188 297.832031 93.613281 C 300.589844 94.109375 303.28125 94.847656 305.902344 95.832031 C 308.527344 96.816406 311.039062 98.03125 313.445312 99.472656 C 315.847656 100.910156 318.101562 102.558594 320.203125 104.40625 Z M 320.203125 104.40625 " fill-opacity="1" fill-rule="nonzero"/><path fill="#e172ff" d="M 289.429688 92.878906 L 207.921875 92.878906 C 207.625 94.890625 207.394531 96.914062 207.234375 98.941406 C 207.074219 100.96875 206.984375 103 206.960938 105.03125 C 206.9375 107.066406 206.984375 109.097656 207.101562 111.128906 C 207.214844 113.160156 207.398438 115.1875 207.648438 117.203125 C 207.902344 119.222656 208.222656 121.230469 208.609375 123.226562 C 208.996094 125.222656 209.453125 127.207031 209.972656 129.171875 C 210.496094 131.136719 211.082031 133.085938 211.734375 135.011719 C 212.386719 136.9375 213.105469 138.839844 213.886719 140.714844 C 214.671875 142.59375 215.515625 144.445312 216.421875 146.265625 C 217.328125 148.085938 218.296875 149.875 219.324219 151.628906 C 220.351562 153.382812 221.4375 155.101562 222.582031 156.785156 C 223.726562 158.464844 224.925781 160.105469 226.183594 161.707031 C 227.4375 163.308594 228.746094 164.863281 230.105469 166.375 C 231.464844 167.886719 232.875 169.351562 234.335938 170.769531 C 235.796875 172.1875 237.300781 173.550781 238.855469 174.867188 C 240.40625 176.179688 242 177.441406 243.636719 178.648438 C 245.277344 179.855469 246.953125 181.007812 248.667969 182.101562 C 250.382812 183.195312 252.132812 184.226562 253.917969 185.203125 C 255.703125 186.179688 257.519531 187.09375 259.367188 187.945312 C 261.210938 188.796875 263.085938 189.585938 264.984375 190.3125 C 266.886719 191.035156 268.808594 191.699219 270.753906 192.292969 C 272.699219 192.886719 274.660156 193.417969 276.644531 193.878906 C 278.625 194.34375 280.617188 194.738281 282.625 195.066406 C 284.632812 195.394531 286.648438 195.652344 288.675781 195.84375 C 290.699219 196.035156 292.730469 196.160156 294.761719 196.214844 C 296.796875 196.265625 298.828125 196.253906 300.859375 196.167969 C 302.894531 196.085938 304.921875 195.933594 306.941406 195.714844 C 308.964844 195.492188 310.976562 195.203125 312.980469 194.847656 C 314.980469 194.492188 316.96875 194.066406 318.945312 193.574219 C 320.917969 193.085938 322.875 192.527344 324.808594 191.902344 C 326.746094 191.28125 328.660156 190.59375 330.546875 189.839844 C 332.4375 189.085938 334.300781 188.269531 336.136719 187.390625 L 336.136719 139.585938 C 336.136719 138.058594 336.058594 136.53125 335.910156 135.007812 C 335.761719 133.488281 335.535156 131.976562 335.238281 130.476562 C 334.9375 128.976562 334.566406 127.492188 334.125 126.027344 C 333.679688 124.566406 333.164062 123.125 332.578125 121.714844 C 331.992188 120.300781 331.339844 118.917969 330.621094 117.570312 C 329.898438 116.21875 329.113281 114.910156 328.261719 113.636719 C 327.414062 112.367188 326.503906 111.140625 325.53125 109.957031 C 324.5625 108.773438 323.535156 107.640625 322.453125 106.558594 C 321.371094 105.480469 320.242188 104.453125 319.058594 103.480469 C 317.875 102.511719 316.648438 101.601562 315.375 100.75 C 314.105469 99.902344 312.792969 99.117188 311.445312 98.394531 C 310.097656 97.675781 308.714844 97.019531 307.300781 96.433594 C 305.886719 95.851562 304.449219 95.335938 302.984375 94.890625 C 301.523438 94.449219 300.039062 94.074219 298.539062 93.777344 C 297.039062 93.480469 295.527344 93.253906 294.007812 93.105469 C 292.484375 92.957031 290.957031 92.878906 289.429688 92.878906 Z M 289.429688 92.878906 " fill-opacity="1" fill-rule="nonzero"/><g clip-path="url(#761e5061f2)"><path fill="#f3f5f9" d="M 374.910156 105.804688 C 374.910156 107.074219 374.878906 108.34375 374.816406 109.609375 C 374.753906 110.878906 374.660156 112.144531 374.535156 113.40625 C 374.410156 114.667969 374.257812 115.929688 374.070312 117.183594 C 373.882812 118.4375 373.667969 119.6875 373.417969 120.933594 C 373.171875 122.179688 372.894531 123.417969 372.585938 124.648438 C 372.277344 125.878906 371.9375 127.101562 371.570312 128.316406 C 371.203125 129.53125 370.804688 130.734375 370.375 131.929688 C 369.949219 133.125 369.492188 134.308594 369.007812 135.480469 C 368.519531 136.652344 368.007812 137.8125 367.464844 138.960938 C 366.921875 140.109375 366.351562 141.242188 365.753906 142.359375 C 365.152344 143.480469 364.527344 144.585938 363.875 145.671875 C 363.222656 146.761719 362.542969 147.832031 361.839844 148.886719 C 361.132812 149.945312 360.402344 150.980469 359.648438 152 C 358.890625 153.019531 358.113281 154.019531 357.304688 155 C 356.5 155.980469 355.671875 156.941406 354.820312 157.882812 C 353.96875 158.824219 353.09375 159.742188 352.195312 160.640625 C 351.296875 161.539062 350.378906 162.414062 349.4375 163.265625 C 348.5 164.117188 347.539062 164.945312 346.558594 165.75 C 345.574219 166.554688 344.574219 167.335938 343.554688 168.09375 C 342.535156 168.847656 341.5 169.578125 340.445312 170.285156 C 339.390625 170.988281 338.316406 171.667969 337.226562 172.320312 C 336.140625 172.972656 335.035156 173.597656 333.917969 174.195312 C 332.796875 174.792969 331.664062 175.367188 330.515625 175.90625 C 329.371094 176.449219 328.210938 176.964844 327.035156 177.449219 C 325.863281 177.9375 324.679688 178.394531 323.484375 178.820312 C 322.289062 179.246094 321.085938 179.644531 319.871094 180.015625 C 318.65625 180.382812 317.433594 180.722656 316.203125 181.03125 C 314.972656 181.335938 313.734375 181.617188 312.488281 181.863281 C 311.246094 182.109375 309.996094 182.328125 308.738281 182.515625 C 307.484375 182.699219 306.222656 182.855469 304.960938 182.980469 C 303.699219 183.105469 302.433594 183.199219 301.164062 183.261719 C 299.898438 183.324219 298.628906 183.351562 297.359375 183.351562 C 296.089844 183.351562 294.824219 183.324219 293.554688 183.261719 C 292.289062 183.199219 291.023438 183.105469 289.757812 182.980469 C 288.496094 182.855469 287.238281 182.699219 285.980469 182.515625 C 284.726562 182.328125 283.476562 182.109375 282.230469 181.863281 C 280.988281 181.617188 279.75 181.335938 278.519531 181.03125 C 277.285156 180.722656 276.0625 180.382812 274.847656 180.015625 C 273.636719 179.644531 272.429688 179.246094 271.234375 178.820312 C 270.039062 178.394531 268.855469 177.9375 267.683594 177.449219 C 266.511719 176.964844 265.351562 176.449219 264.203125 175.90625 C 263.058594 175.367188 261.921875 174.792969 260.804688 174.195312 C 259.683594 173.597656 258.582031 172.972656 257.492188 172.320312 C 256.402344 171.667969 255.332031 170.988281 254.277344 170.285156 C 253.222656 169.578125 252.183594 168.847656 251.164062 168.09375 C 250.144531 167.335938 249.144531 166.554688 248.164062 165.75 C 247.183594 164.945312 246.222656 164.117188 245.28125 163.265625 C 244.339844 162.414062 243.421875 161.539062 242.523438 160.640625 C 241.628906 159.742188 240.753906 158.824219 239.902344 157.882812 C 239.046875 156.941406 238.21875 155.980469 237.414062 155 C 236.609375 154.019531 235.828125 153.019531 235.074219 152 C 234.316406 150.980469 233.585938 149.945312 232.882812 148.886719 C 232.175781 147.832031 231.496094 146.761719 230.84375 145.671875 C 230.191406 144.585938 229.566406 143.480469 228.96875 142.359375 C 228.371094 141.242188 227.800781 140.109375 227.257812 138.960938 C 226.714844 137.8125 226.199219 136.652344 225.714844 135.480469 C 225.230469 134.308594 224.773438 133.125 224.34375 131.929688 C 223.917969 130.734375 223.519531 129.53125 223.152344 128.316406 C 222.78125 127.101562 222.445312 125.878906 222.136719 124.648438 C 221.828125 123.417969 221.550781 122.179688 221.300781 120.933594 C 221.054688 119.6875 220.835938 118.4375 220.652344 117.183594 C 220.464844 115.929688 220.308594 114.667969 220.183594 113.40625 C 220.0625 112.144531 219.96875 110.878906 219.90625 109.609375 C 219.84375 108.34375 219.8125 107.074219 219.8125 105.804688 C 219.8125 104.535156 219.84375 103.265625 219.90625 102 C 219.96875 100.730469 220.0625 99.46875 220.183594 98.203125 C 220.308594 96.941406 220.464844 95.679688 220.652344 94.425781 C 220.835938 93.171875 221.054688 91.921875 221.300781 90.675781 C 221.550781 89.429688 221.828125 88.191406 222.136719 86.960938 C 222.445312 85.730469 222.78125 84.507812 223.152344 83.292969 C 223.519531 82.078125 223.917969 80.875 224.34375 79.679688 C 224.773438 78.484375 225.230469 77.300781 225.714844 76.128906 C 226.199219 74.957031 226.714844 73.796875 227.257812 72.648438 C 227.800781 71.5 228.371094 70.367188 228.96875 69.25 C 229.566406 68.128906 230.191406 67.027344 230.84375 65.9375 C 231.496094 64.847656 232.175781 63.777344 232.882812 62.722656 C 233.585938 61.664062 234.316406 60.628906 235.074219 59.609375 C 235.828125 58.589844 236.609375 57.589844 237.414062 56.609375 C 238.21875 55.628906 239.046875 54.667969 239.902344 53.726562 C 240.753906 52.785156 241.628906 51.867188 242.523438 50.96875 C 243.421875 50.074219 244.339844 49.199219 245.28125 48.34375 C 246.222656 47.492188 247.183594 46.664062 248.164062 45.859375 C 249.144531 45.054688 250.144531 44.273438 251.164062 43.515625 C 252.183594 42.761719 253.222656 42.03125 254.277344 41.324219 C 255.332031 40.621094 256.402344 39.941406 257.492188 39.289062 C 258.582031 38.636719 259.683594 38.011719 260.804688 37.414062 C 261.921875 36.816406 263.058594 36.246094 264.203125 35.703125 C 265.351562 35.160156 266.511719 34.644531 267.683594 34.160156 C 268.855469 33.671875 270.039062 33.21875 271.234375 32.789062 C 272.429688 32.363281 273.636719 31.964844 274.847656 31.59375 C 276.0625 31.226562 277.285156 30.890625 278.519531 30.582031 C 279.75 30.273438 280.988281 29.992188 282.230469 29.746094 C 283.476562 29.5 284.726562 29.28125 285.980469 29.09375 C 287.238281 28.910156 288.496094 28.753906 289.757812 28.628906 C 291.023438 28.503906 292.289062 28.410156 293.554688 28.351562 C 294.824219 28.289062 296.089844 28.257812 297.359375 28.257812 C 298.628906 28.257812 299.898438 28.289062 301.164062 28.351562 C 302.433594 28.410156 303.699219 28.503906 304.960938 28.628906 C 306.222656 28.753906 307.484375 28.910156 308.738281 29.09375 C 309.996094 29.28125 311.246094 29.5 312.488281 29.746094 C 313.734375 29.992188 314.972656 30.273438 316.203125 30.582031 C 317.433594 30.890625 318.65625 31.226562 319.871094 31.59375 C 321.085938 31.964844 322.289062 32.363281 323.484375 32.789062 C 324.679688 33.21875 325.863281 33.671875 327.035156 34.160156 C 328.210938 34.644531 329.371094 35.160156 330.515625 35.703125 C 331.664062 36.246094 332.796875 36.816406 333.917969 37.414062 C 335.035156 38.011719 336.140625 38.636719 337.226562 39.289062 C 338.316406 39.941406 339.390625 40.621094 340.445312 41.324219 C 341.5 42.03125 342.535156 42.761719 343.554688 43.515625 C 344.574219 44.273438 345.574219 45.054688 346.558594 45.859375 C 347.539062 46.664062 348.5 47.492188 349.4375 48.34375 C 350.378906 49.199219 351.296875 50.074219 352.195312 50.96875 C 353.09375 51.867188 353.96875 52.785156 354.820312 53.726562 C 355.671875 54.667969 356.5 55.628906 357.304688 56.609375 C 358.113281 57.589844 358.890625 58.589844 359.648438 59.609375 C 360.402344 60.628906 361.132812 61.664062 361.839844 62.722656 C 362.542969 63.777344 363.222656 64.847656 363.875 65.9375 C 364.527344 67.027344 365.152344 68.128906 365.753906 69.25 C 366.351562 70.367188 366.921875 71.5 367.464844 72.648438 C 368.007812 73.796875 368.519531 74.957031 369.007812 76.128906 C 369.492188 77.300781 369.949219 78.484375 370.375 79.679688 C 370.804688 80.875 371.203125 82.078125 371.570312 83.292969 C 371.9375 84.507812 372.277344 85.730469 372.585938 86.960938 C 372.894531 88.191406 373.171875 89.429688 373.417969 90.675781 C 373.667969 91.921875 373.882812 93.171875 374.070312 94.425781 C 374.257812 95.679688 374.410156 96.941406 374.535156 98.203125 C 374.660156 99.46875 374.753906 100.730469 374.816406 102 C 374.878906 103.265625 374.910156 104.535156 374.910156 105.804688 Z M 374.910156 105.804688 " fill-opacity="1" fill-rule="nonzero"/></g><path fill="#c02027" d="M 263.636719 75.714844 C 263.632812 76.710938 263.730469 77.695312 263.925781 78.667969 C 264.117188 79.644531 264.40625 80.59375 264.785156 81.511719 C 265.167969 82.429688 265.632812 83.304688 266.183594 84.132812 C 266.738281 84.957031 267.367188 85.722656 268.070312 86.425781 C 268.773438 87.128906 269.539062 87.757812 270.363281 88.308594 C 271.191406 88.863281 272.066406 89.328125 272.984375 89.710938 C 273.902344 90.089844 274.851562 90.378906 275.824219 90.570312 C 276.800781 90.765625 277.785156 90.859375 278.78125 90.859375 L 287.867188 90.859375 L 287.867188 142.359375 C 287.867188 143.351562 287.964844 144.335938 288.160156 145.3125 C 288.351562 146.289062 288.640625 147.234375 289.019531 148.15625 C 289.398438 149.074219 289.867188 149.949219 290.417969 150.773438 C 290.972656 151.601562 291.597656 152.367188 292.300781 153.070312 C 293.007812 153.773438 293.769531 154.402344 294.597656 154.953125 C 295.425781 155.507812 296.296875 155.972656 297.21875 156.351562 C 298.136719 156.734375 299.085938 157.019531 300.058594 157.214844 C 301.035156 157.40625 302.019531 157.503906 303.015625 157.503906 C 304.007812 157.503906 304.996094 157.40625 305.96875 157.214844 C 306.945312 157.019531 307.894531 156.734375 308.8125 156.351562 C 309.730469 155.972656 310.605469 155.507812 311.433594 154.953125 C 312.257812 154.402344 313.023438 153.773438 313.726562 153.070312 C 314.429688 152.367188 315.058594 151.601562 315.609375 150.773438 C 316.164062 149.949219 316.628906 149.074219 317.011719 148.15625 C 317.390625 147.234375 317.679688 146.289062 317.871094 145.3125 C 318.066406 144.335938 318.160156 143.351562 318.160156 142.359375 L 318.160156 72.683594 C 318.160156 71.890625 318.082031 71.101562 317.929688 70.320312 C 317.773438 69.539062 317.542969 68.785156 317.238281 68.046875 C 316.933594 67.3125 316.5625 66.613281 316.121094 65.953125 C 315.675781 65.292969 315.175781 64.679688 314.613281 64.117188 C 314.050781 63.554688 313.4375 63.050781 312.777344 62.609375 C 312.113281 62.167969 311.417969 61.796875 310.679688 61.492188 C 309.945312 61.1875 309.1875 60.957031 308.40625 60.800781 C 307.628906 60.644531 306.839844 60.566406 306.042969 60.566406 L 278.78125 60.566406 C 277.785156 60.566406 276.800781 60.664062 275.824219 60.859375 C 274.851562 61.050781 273.902344 61.339844 272.984375 61.71875 C 272.066406 62.097656 271.191406 62.566406 270.363281 63.117188 C 269.539062 63.671875 268.773438 64.296875 268.070312 65.003906 C 267.367188 65.707031 266.738281 66.46875 266.183594 67.296875 C 265.632812 68.125 265.167969 68.996094 264.785156 69.917969 C 264.40625 70.835938 264.117188 71.785156 263.925781 72.757812 C 263.730469 73.734375 263.632812 74.71875 263.636719 75.714844 Z M 263.636719 75.714844 " fill-opacity="1" fill-rule="nonzero"/></svg>