<svg xmlns="http://www.w3.org/2000/svg" xmlns:xlink="http://www.w3.org/1999/xlink" width="500" zoomAndPan="magnify" viewBox="0 0 375 374.999991" height="500" preserveAspectRatio="xMidYMid meet" version="1.0"><defs><clipPath id="d6bc8f0df7"><path d="M 55.226562 0 L 319.898438 0 L 319.898438 375 L 55.226562 375 Z M 55.226562 0 " clip-rule="nonzero"/></clipPath></defs><g clip-path="url(#d6bc8f0df7)"><path fill="#000000" d="M 66.289062 5.667969 C 63.625 5.667969 61.460938 7.839844 61.460938 10.503906 L 61.460938 364.242188 C 61.460938 366.910156 63.621094 369.078125 66.289062 369.078125 L 308.945312 369.078125 C 311.605469 369.078125 313.777344 366.910156 313.777344 364.242188 L 313.777344 10.503906 C 313.777344 7.839844 311.605469 5.671875 308.945312 5.671875 Z M 308.945312 374.847656 L 66.289062 374.847656 C 60.445312 374.847656 55.691406 370.089844 55.691406 364.246094 L 55.691406 10.503906 C 55.691406 4.660156 60.445312 -0.0976562 66.289062 -0.0976562 L 308.945312 -0.0976562 C 314.789062 -0.0976562 319.542969 4.660156 319.542969 10.507812 L 319.542969 364.242188 C 319.542969 370.089844 314.789062 374.847656 308.945312 374.847656 Z M 308.945312 374.847656 " fill-opacity="1" fill-rule="evenodd"/></g><path fill="#000000" d="M 123.527344 39.230469 C 117.144531 39.230469 111.945312 44.425781 111.945312 50.808594 C 111.945312 57.191406 117.144531 62.382812 123.527344 62.382812 C 129.902344 62.382812 135.101562 57.191406 135.101562 50.808594 C 135.101562 44.421875 129.902344 39.230469 123.527344 39.230469 Z M 123.527344 68.152344 C 113.960938 68.152344 106.175781 60.371094 106.175781 50.808594 C 106.175781 41.242188 113.957031 33.464844 123.527344 33.464844 C 133.089844 33.460938 140.867188 41.242188 140.867188 50.808594 C 140.867188 60.371094 133.085938 68.152344 123.527344 68.152344 Z M 123.527344 68.152344 " fill-opacity="1" fill-rule="evenodd"/><path fill="#000000" d="M 98.808594 100.585938 L 148.242188 100.585938 L 148.242188 89.011719 C 148.242188 82.632812 143.046875 77.441406 136.667969 77.441406 L 110.378906 77.441406 C 104 77.441406 98.808594 82.632812 98.808594 89.015625 Z M 151.128906 106.351562 L 95.925781 106.351562 C 94.328125 106.351562 93.042969 105.0625 93.042969 103.46875 L 93.042969 89.011719 C 93.042969 79.449219 100.816406 71.671875 110.375 71.671875 L 136.671875 71.671875 C 146.230469 71.671875 154.011719 79.453125 154.011719 89.015625 L 154.011719 103.46875 C 154.011719 105.0625 152.71875 106.355469 151.128906 106.351562 Z M 151.128906 106.351562 " fill-opacity="1" fill-rule="evenodd"/><path fill="#000000" d="M 281.316406 39.230469 L 169.648438 39.230469 C 168.054688 39.230469 166.765625 37.941406 166.765625 36.347656 C 166.765625 34.753906 168.054688 33.464844 169.648438 33.464844 L 281.316406 33.460938 C 282.90625 33.460938 284.199219 34.753906 284.199219 36.347656 C 284.199219 37.941406 282.90625 39.230469 281.316406 39.230469 Z M 281.316406 39.230469 " fill-opacity="1" fill-rule="evenodd"/><path fill="#000000" d="M 281.316406 72.792969 L 169.648438 72.792969 C 168.054688 72.792969 166.765625 71.503906 166.765625 69.910156 C 166.765625 68.316406 168.054688 67.027344 169.648438 67.027344 L 281.316406 67.023438 C 282.90625 67.023438 284.199219 68.316406 284.199219 69.910156 C 284.199219 71.5 282.90625 72.792969 281.316406 72.792969 Z M 281.316406 72.792969 " fill-opacity="1" fill-rule="evenodd"/><path fill="#000000" d="M 281.316406 106.351562 L 169.648438 106.351562 C 168.054688 106.351562 166.765625 105.0625 166.765625 103.46875 C 166.765625 101.878906 168.054688 100.585938 169.648438 100.585938 L 281.316406 100.585938 C 282.90625 100.585938 284.199219 101.878906 284.199219 103.46875 C 284.199219 105.0625 282.90625 106.355469 281.316406 106.351562 Z M 281.316406 106.351562 " fill-opacity="1" fill-rule="evenodd"/><path fill="#000000" d="M 281.316406 139.914062 L 93.921875 139.914062 C 92.328125 139.914062 91.035156 138.625 91.035156 137.03125 C 91.035156 135.4375 92.328125 134.148438 93.917969 134.148438 L 281.316406 134.148438 C 282.90625 134.148438 284.199219 135.4375 284.199219 137.03125 C 284.199219 138.625 282.90625 139.917969 281.316406 139.914062 Z M 281.316406 139.914062 " fill-opacity="1" fill-rule="evenodd"/><path fill="#000000" d="M 281.316406 173.476562 L 93.921875 173.476562 C 92.328125 173.476562 91.035156 172.1875 91.035156 170.59375 C 91.035156 169 92.328125 167.710938 93.917969 167.710938 L 281.316406 167.710938 C 282.90625 167.710938 284.199219 169 284.199219 170.59375 C 284.199219 172.183594 282.90625 173.476562 281.316406 173.476562 Z M 281.316406 173.476562 " fill-opacity="1" fill-rule="evenodd"/><path fill="#000000" d="M 281.316406 207.039062 L 93.921875 207.039062 C 92.328125 207.039062 91.035156 205.746094 91.035156 204.15625 C 91.035156 202.5625 92.328125 201.269531 93.917969 201.269531 L 281.316406 201.269531 C 282.90625 201.269531 284.199219 202.5625 284.199219 204.15625 C 284.199219 205.746094 282.90625 207.039062 281.316406 207.039062 Z M 281.316406 207.039062 " fill-opacity="1" fill-rule="evenodd"/><path fill="#000000" d="M 281.316406 240.601562 L 93.921875 240.601562 C 92.328125 240.601562 91.035156 239.308594 91.035156 237.714844 C 91.035156 236.125 92.328125 234.832031 93.917969 234.832031 L 281.316406 234.832031 C 282.90625 234.832031 284.199219 236.125 284.199219 237.714844 C 284.199219 239.308594 282.90625 240.601562 281.316406 240.601562 Z M 281.316406 240.601562 " fill-opacity="1" fill-rule="evenodd"/><path fill="#000000" d="M 281.316406 274.160156 L 93.921875 274.160156 C 92.328125 274.160156 91.035156 272.871094 91.035156 271.277344 C 91.035156 269.683594 92.328125 268.394531 93.917969 268.394531 L 281.316406 268.394531 C 282.90625 268.394531 284.199219 269.683594 284.199219 271.277344 C 284.199219 272.871094 282.90625 274.164062 281.316406 274.160156 Z M 281.316406 274.160156 " fill-opacity="1" fill-rule="evenodd"/><path fill="#000000" d="M 281.316406 307.722656 L 93.921875 307.722656 C 92.328125 307.722656 91.035156 306.429688 91.035156 304.839844 C 91.035156 303.246094 92.328125 301.953125 93.917969 301.953125 L 281.316406 301.953125 C 282.90625 301.953125 284.199219 303.246094 284.199219 304.839844 C 284.199219 306.429688 282.90625 307.722656 281.316406 307.722656 Z M 281.316406 307.722656 " fill-opacity="1" fill-rule="evenodd"/><path fill="#000000" d="M 281.316406 341.285156 L 93.921875 341.285156 C 92.328125 341.285156 91.035156 339.992188 91.035156 338.398438 C 91.035156 336.808594 92.328125 335.515625 93.917969 335.515625 L 281.316406 335.515625 C 282.90625 335.515625 284.199219 336.808594 284.199219 338.398438 C 284.199219 339.992188 282.90625 341.285156 281.316406 341.285156 Z M 281.316406 341.285156 " fill-opacity="1" fill-rule="evenodd"/><path fill="#fcc09c" d="M 123.527344 62.382812 C 129.902344 62.382812 135.101562 57.191406 135.101562 50.808594 C 135.101562 44.421875 129.902344 39.230469 123.527344 39.230469 C 117.144531 39.230469 111.945312 44.425781 111.945312 50.808594 C 111.945312 57.191406 117.144531 62.382812 123.527344 62.382812 Z M 123.527344 62.382812 " fill-opacity="1" fill-rule="evenodd"/><path fill="#f2cdfc" d="M 136.667969 77.441406 L 110.378906 77.441406 C 104 77.441406 98.808594 82.632812 98.808594 89.015625 L 98.808594 100.585938 L 148.242188 100.585938 L 148.242188 89.011719 C 148.242188 82.632812 143.046875 77.441406 136.667969 77.441406 Z M 136.667969 77.441406 " fill-opacity="1" fill-rule="evenodd"/><path fill="#ffffff" d="M 123.527344 33.464844 C 133.089844 33.460938 140.867188 41.242188 140.867188 50.808594 C 140.867188 60.371094 133.085938 68.152344 123.527344 68.152344 C 113.960938 68.152344 106.175781 60.371094 106.175781 50.808594 C 106.175781 41.242188 113.957031 33.464844 123.527344 33.464844 Z M 110.375 71.671875 L 136.671875 71.671875 C 146.230469 71.671875 154.011719 79.453125 154.011719 89.015625 L 154.011719 103.46875 C 154.011719 105.0625 152.71875 106.355469 151.128906 106.351562 L 95.925781 106.351562 C 94.328125 106.351562 93.042969 105.0625 93.042969 103.46875 L 93.042969 89.011719 C 93.042969 79.449219 100.816406 71.671875 110.375 71.671875 Z M 66.289062 5.667969 C 63.625 5.667969 61.460938 7.839844 61.460938 10.503906 L 61.460938 364.242188 C 61.460938 366.910156 63.621094 369.078125 66.289062 369.078125 L 308.945312 369.078125 C 311.605469 369.078125 313.777344 366.910156 313.777344 364.242188 L 313.777344 10.503906 C 313.777344 7.839844 311.605469 5.671875 308.945312 5.671875 Z M 93.921875 134.148438 L 281.316406 134.148438 C 282.90625 134.148438 284.199219 135.4375 284.199219 137.03125 C 284.199219 138.625 282.90625 139.917969 281.316406 139.914062 L 93.921875 139.914062 C 92.328125 139.914062 91.035156 138.625 91.035156 137.03125 C 91.035156 135.4375 92.328125 134.148438 93.921875 134.148438 Z M 93.921875 167.710938 L 281.316406 167.710938 C 282.90625 167.710938 284.199219 169 284.199219 170.59375 C 284.199219 172.183594 282.90625 173.476562 281.316406 173.476562 L 93.921875 173.476562 C 92.328125 173.476562 91.035156 172.1875 91.035156 170.59375 C 91.035156 169 92.328125 167.710938 93.921875 167.710938 Z M 93.921875 201.269531 L 281.316406 201.269531 C 282.90625 201.269531 284.199219 202.5625 284.199219 204.15625 C 284.199219 205.746094 282.90625 207.039062 281.316406 207.039062 L 93.921875 207.039062 C 92.328125 207.039062 91.035156 205.746094 91.035156 204.15625 C 91.035156 202.5625 92.328125 201.269531 93.921875 201.269531 Z M 93.921875 234.832031 L 281.316406 234.832031 C 282.90625 234.832031 284.199219 236.125 284.199219 237.714844 C 284.199219 239.308594 282.90625 240.601562 281.316406 240.597656 L 93.921875 240.597656 C 92.328125 240.597656 91.035156 239.308594 91.035156 237.714844 C 91.035156 236.125 92.328125 234.832031 93.921875 234.832031 Z M 93.921875 268.394531 L 281.316406 268.394531 C 282.90625 268.394531 284.199219 269.683594 284.199219 271.277344 C 284.199219 272.871094 282.90625 274.160156 281.316406 274.160156 L 93.921875 274.160156 C 92.328125 274.160156 91.035156 272.871094 91.035156 271.277344 C 91.035156 269.683594 92.328125 268.394531 93.921875 268.394531 Z M 93.921875 301.957031 L 281.316406 301.953125 C 282.90625 301.953125 284.199219 303.246094 284.199219 304.839844 C 284.199219 306.429688 282.90625 307.722656 281.316406 307.722656 L 93.921875 307.722656 C 92.328125 307.722656 91.035156 306.429688 91.035156 304.839844 C 91.035156 303.246094 92.328125 301.957031 93.921875 301.957031 Z M 93.921875 335.515625 L 281.316406 335.515625 C 282.90625 335.515625 284.199219 336.808594 284.199219 338.398438 C 284.199219 339.992188 282.90625 341.285156 281.316406 341.285156 L 93.921875 341.285156 C 92.328125 341.285156 91.035156 339.992188 91.035156 338.398438 C 91.035156 336.808594 92.328125 335.515625 93.921875 335.515625 Z M 169.648438 67.023438 L 281.316406 67.023438 C 282.90625 67.023438 284.199219 68.316406 284.199219 69.910156 C 284.199219 71.5 282.90625 72.792969 281.316406 72.792969 L 169.648438 72.792969 C 168.058594 72.792969 166.765625 71.5 166.765625 69.910156 C 166.765625 68.316406 168.054688 67.023438 169.648438 67.023438 Z M 169.648438 100.585938 L 281.316406 100.585938 C 282.90625 100.585938 284.199219 101.875 284.199219 103.46875 C 284.199219 105.0625 282.90625 106.355469 281.316406 106.351562 L 169.648438 106.351562 C 168.058594 106.351562 166.765625 105.0625 166.765625 103.46875 C 166.765625 101.875 168.054688 100.585938 169.648438 100.585938 Z M 169.648438 33.464844 L 281.316406 33.460938 C 282.90625 33.460938 284.199219 34.753906 284.199219 36.347656 C 284.199219 37.941406 282.90625 39.230469 281.316406 39.230469 L 169.648438 39.230469 C 168.058594 39.230469 166.765625 37.941406 166.765625 36.347656 C 166.765625 34.753906 168.054688 33.464844 169.648438 33.464844 Z M 169.648438 33.464844 " fill-opacity="1" fill-rule="evenodd"/></svg>